<svg xmlns="http://www.w3.org/2000/svg" viewBox="0 0 542.9 108.06"><defs><style>.cls-1{fill:#00454a;}.cls-2{fill:#00c5ab;}</style></defs><title>Logo</title><g id="Capa_2" data-name="Capa 2"><g id="Capa_4" data-name="Capa 4"><path class="cls-1" d="M299.84,9.68v7.77h13.71v8H299.84v8.21h16v7.94h-24V1.81h24V9.68Z"/><path class="cls-1" d="M353.94,21.74c0,12.32-7.84,19.82-20.69,19.82H321.69V1.84l11.56,0C346.1,1.79,353.94,9.33,353.94,21.74Zm-8.06,0c0-7.45-4.79-12-12.65-12h-3.58V33.59h3.65C341.12,33.59,345.88,29.11,345.88,21.71Z"/><path class="cls-1" d="M358.78,26.33V1.81h8V26.3a7.3,7.3,0,1,0,14.6,0V1.81h8V26.33a15.34,15.34,0,0,1-30.67,0Z"/><path class="cls-1" d="M416.48,36H400.57L398,41.56H389.4l19-40.73h.25l19,40.73H419Zm-3.11-6.8-4.83-10.63-4.86,10.63Z"/><path class="cls-1" d="M452.28,41.56,439.63,22.77V41.56h-8l0-39.75h13c7.42,0,13.51,5.72,13.51,12.87a11.63,11.63,0,0,1-7.35,11.07l11.3,15.81ZM439.61,19.71l5.13,0a5.09,5.09,0,0,0,5.13-5,5.12,5.12,0,0,0-5.13-5h-5.13Z"/><path class="cls-1" d="M498.1,21.74c0,12.32-7.84,19.82-20.69,19.82H465.85V1.84l11.56,0C490.26,1.79,498.1,9.33,498.1,21.74Zm-8.07,0c0-7.45-4.78-12-12.64-12h-3.58V33.59h3.65C485.28,33.59,490,29.11,490,21.71Z"/><path class="cls-1" d="M501.55,20.85a20.68,20.68,0,1,1,20.64,20.7A20.81,20.81,0,0,1,501.55,20.85Zm33.26-.05a12.6,12.6,0,1,0-12.62,12.62A12.68,12.68,0,0,0,534.81,20.8Z"/><path class="cls-2" d="M291.86,85.71A21,21,0,0,1,312.5,65c5.18.07,9.76,2.12,13.93,6.14l-4.61,6.29a13.54,13.54,0,0,0-9.4-4.29,12.59,12.59,0,0,0,0,25.17c3.65,0,6.8-2,9.44-4.54l4.59,6.46c-3.5,3.48-7.77,6.09-13.78,6.09A20.85,20.85,0,0,1,291.86,85.71Z"/><path class="cls-2" d="M355.06,100.87h-15.9l-2.54,5.68H328l19-41.72h.25l19,41.72h-8.66Zm-3.11-7L347.12,83,342.26,93.9Z"/><path class="cls-2" d="M368.9,98.87l6.38-4.51A8.37,8.37,0,0,0,383,98.47c3.75,0,6.26-1.53,6.26-3.66,0-2.93-4.75-5.23-8.92-7.31-4.46-2.23-9.37-4.69-9.37-11C371,69.53,376.79,65,384.09,65c5.42,0,9.91,2.25,11.71,7.08l-5.89,4.14a6.14,6.14,0,0,0-5.7-3.35c-3,0-5.2,1.74-5.2,3.8,0,2.37,3,3.19,7.57,5.35,6.58,3.12,10.72,6.49,10.72,12.63,0,7.29-5.92,11.92-14.42,11.92C376.37,106.55,371.56,103.83,368.9,98.87Z"/><path class="cls-2" d="M427.29,73.94h-9.77v32.61h-8V73.94h-9.79v-8.1h27.57Z"/><path class="cls-2" d="M432.78,65.84h8v40.71h-8Z"/><path class="cls-2" d="M472.64,98.42v8.13h-24V65.84h8V98.42Z"/><path class="cls-2" d="M501.09,98.42v8.13h-24V65.84h8V98.42Z"/><path class="cls-2" d="M531.72,100.87h-15.9l-2.54,5.68h-8.63l19-41.72h.25l19,41.72h-8.65Zm-3.1-7L523.78,83,518.93,93.9Z"/><path class="cls-1" d="M203.71,33.48A94.32,94.32,0,0,0,175.86,5.7l-21,32.75-1.63-.37a161.4,161.4,0,0,0-70.71,0l-1.64.37L59.81,5.7A94.32,94.32,0,0,0,32,33.48C15.37,59.09,15.7,86,17.74,100.85H217.93C220,86,220.3,59.09,203.71,33.48ZM70.48,82.41c-4,0-7.24-4.81-7.24-10.73S66.48,61,70.48,61s7.22,4.79,7.22,10.72S74.46,82.41,70.48,82.41Zm55.77-4.81h0l-.25.06h0a10.92,10.92,0,0,0-7.17,6.16s0,0,0,0l-.08.18a1,1,0,0,1-.86.5A1,1,0,0,1,117,84a1.26,1.26,0,0,0-.08-.18l0,0a10.94,10.94,0,0,0-7.18-6.16l-.3-.08a1,1,0,0,1-.57-.9,1,1,0,0,1,.14-.5.74.74,0,0,1,.15-.19,11,11,0,0,1,17.56.15,1.12,1.12,0,0,1,.15.54A1,1,0,0,1,126.25,77.6Zm38.94,4.81c-4,0-7.22-4.81-7.22-10.73S161.21,61,165.19,61s7.24,4.79,7.24,10.72S169.19,82.41,165.19,82.41Z"/><circle class="cls-1" cx="228.46" cy="100.85" r="7.2"/><circle class="cls-1" cx="7.2" cy="100.85" r="7.2"/></g></g></svg>